<?xml version="1.0" encoding="UTF-8"?>
<svg version="1.1" xmlns="http://www.w3.org/2000/svg" width="431" height="398">
<path d="M0 0 C-0.48891532 2.96636017 -0.98520948 5.92440403 -1.5625 8.875 C-2.08931835 12.63798819 -2.06548215 16.20203505 -2 20 C-4.20404056 21.10202028 -5.59789733 21.20327798 -8.04296875 21.359375 C-32.22055533 23.15497581 -51.78456151 31.61876274 -69 49 C-69.65742187 49.62261719 -70.31484375 50.24523438 -70.9921875 50.88671875 C-76.13325291 55.80379584 -80.12649968 61.04866176 -84 67 C-84.61488281 67.8971875 -85.22976562 68.794375 -85.86328125 69.71875 C-95.51745503 84.42250165 -103.04067182 101.60557782 -106 119 C-106.17297607 119.98846924 -106.34595215 120.97693848 -106.52416992 121.99536133 C-108.00013467 131.21080568 -108.36013629 140.25854481 -108.3125 149.5625 C-108.30976578 150.67626511 -108.30976578 150.67626511 -108.30697632 151.81253052 C-108.17850966 183.01570208 -100.75788526 213.61098263 -85.96875 241.18896484 C-85.03442021 242.93565295 -84.12605068 244.69615164 -83.21875 246.45703125 C-77.18508165 258.0169913 -69.78737341 268.56428907 -62 279 C-61.42507812 279.77085937 -60.85015625 280.54171875 -60.2578125 281.3359375 C-53.72179925 289.92010237 -46.4413468 297.73136033 -38.65234375 305.1875 C-37 307 -37 307 -37 309 C-36.46761719 309.21269531 -35.93523437 309.42539062 -35.38671875 309.64453125 C-32.08825348 311.51780039 -29.53393311 314.08204156 -26.8125 316.6875 C-21.7408422 321.44165235 -16.63300515 325.91248202 -11 330 C-10.42330566 330.42216797 -9.84661133 330.84433594 -9.25244141 331.27929688 C-1.09784765 337.22845759 7.21075475 342.92851068 15.75 348.3125 C16.50015381 348.79879883 17.25030762 349.28509766 18.02319336 349.78613281 C21.99669232 352.28228928 21.99669232 352.28228928 26.51953125 353.0703125 C30.16358473 351.49791777 33.53896107 349.60752653 36.9375 347.5625 C38.05922607 346.89359741 38.05922607 346.89359741 39.20361328 346.21118164 C53.29111848 337.69319001 66.15646029 327.62700881 78.22265625 316.43359375 C80 315 80 315 82 315 C82.20625 314.443125 82.4125 313.88625 82.625 313.3125 C83.96846753 311.05303189 85.05157702 310.0001344 87.0625 308.375 C90.00824713 306.32880603 90.00824713 306.32880603 91 304 C91.66 304 92.32 304 93 304 C93.2578125 303.42765625 93.515625 302.8553125 93.78125 302.265625 C95.11365942 299.78871005 96.65056118 297.8658834 98.5 295.75 C99.1084375 295.04359375 99.716875 294.3371875 100.34375 293.609375 C102 292 102 292 104 292 C104.309375 291.38125 104.61875 290.7625 104.9375 290.125 C105.625 288.75 106.3125 287.375 107 286 C107.66 286 108.32 286 109 286 C109.23589844 285.29746094 109.47179687 284.59492188 109.71484375 283.87109375 C111.23947642 280.46499948 113.22107291 277.96821468 115.5625 275.0625 C124.19829672 264.09363896 131.0353655 252.62249528 137 240 C137.50144531 238.97648438 138.00289063 237.95296875 138.51953125 236.8984375 C158.52565396 195.19702076 167.14026484 144.50130496 151.69140625 99.94238281 C151.46324219 99.30139648 151.23507812 98.66041016 151 98 C150.77441406 97.3615918 150.54882812 96.72318359 150.31640625 96.06542969 C142.47993792 74.33804645 129.30289251 48.14830672 108 37 C101.75581466 34.35554957 96.12281242 33.51031569 89.375 33.625 C88.50399658 33.63442627 87.63299316 33.64385254 86.7355957 33.65356445 C59.72883424 34.27540622 32.59702981 46.2175048 13.90234375 65.7421875 C2.85221199 78.64606115 2.85221199 78.64606115 -3 94 C-1.9678628 96.54117149 -1.9678628 96.54117149 -0.25 99.1875 C0.39453125 100.24195312 1.0390625 101.29640625 1.703125 102.3828125 C2.46586369 103.5903696 3.23169044 104.7959797 4 106 C4.42990234 106.67385742 4.85980469 107.34771484 5.30273438 108.04199219 C7.63268408 111.67983805 9.98149784 115.30493181 12.34375 118.921875 C15.12880497 123.18673838 17.85371826 127.48704633 20.5625 131.80078125 C21.98155399 134.03772244 21.98155399 134.03772244 23.6875 136.16796875 C25 138 25 138 25 140 C25.66 140 26.32 140 27 140 C27.21398437 139.36191406 27.42796875 138.72382813 27.6484375 138.06640625 C29.55217712 133.74722822 32.07994687 129.90437489 34.625 125.9375 C35.16769531 125.08623535 35.71039063 124.2349707 36.26953125 123.35791016 C43.55004796 111.96805191 43.55004796 111.96805191 46.90234375 107.12890625 C48.57880555 104.62826211 50.11026495 102.12243532 51.62890625 99.52734375 C58.61779591 88.05499308 58.61779591 88.05499308 62.95703125 86.13330078 C68.37560943 84.87837672 73.72944469 85.24314823 79 87 C78.505 148.38 78.505 148.38 78 211 C71.73 211 65.46 211 59 211 C59.00523682 208.72915527 59.01047363 206.45831055 59.01586914 204.11865234 C59.03245584 196.60689449 59.04349159 189.09513582 59.05181217 181.58336449 C59.05702566 177.03001307 59.06409545 172.47668045 59.07543945 167.92333984 C59.08632285 163.52725668 59.0922884 159.13119158 59.09487724 154.73509598 C59.09672166 153.05981792 59.10032334 151.38454083 59.10573006 149.70927048 C59.11301286 147.35873038 59.11398789 145.00826445 59.11352539 142.65771484 C59.11712067 141.96863037 59.12071594 141.2795459 59.12442017 140.56958008 C59.11601647 136.60987081 58.75958984 132.88558787 58 129 C51.67288426 137.78886042 45.85195418 146.8926541 40 156 C38.00224742 159.10562051 36.00171773 162.20943422 34 165.3125 C33.54334961 166.02349854 33.08669922 166.73449707 32.61621094 167.46704102 C27.84559018 174.86328994 27.84559018 174.86328994 26 177 C25.34 177 24.68 177 24 177 C23.71769531 176.43796875 23.43539062 175.8759375 23.14453125 175.296875 C19.18306442 167.72245748 14.58698118 160.64015381 9.90185547 153.49829102 C3.99195255 144.4876805 -1.66256921 135.36199528 -7 126 C-6.99777939 127.05013779 -6.99555878 128.10027557 -6.99327087 129.18223572 C-6.97303985 139.05645581 -6.95802805 148.93067172 -6.94818783 158.8049078 C-6.9429589 163.88191018 -6.93586108 168.95889589 -6.92456055 174.03588867 C-6.91373201 178.93120552 -6.90772324 183.82650629 -6.90512276 188.72183418 C-6.90326845 190.59382951 -6.89964772 192.46582391 -6.89426994 194.33781242 C-6.88705996 196.95040699 -6.88600904 199.56293427 -6.88647461 202.17553711 C-6.88287933 202.95740387 -6.87928406 203.73927063 -6.87557983 204.54483032 C-6.88594784 209.88594784 -6.88594784 209.88594784 -8 211 C-9.4887186 211.08669432 -10.981445 211.10703494 -12.47265625 211.09765625 C-13.37177734 211.09443359 -14.27089844 211.09121094 -15.19726562 211.08789062 C-16.14279297 211.07951172 -17.08832031 211.07113281 -18.0625 211.0625 C-19.4865918 211.05573242 -19.4865918 211.05573242 -20.93945312 211.04882812 C-23.29303065 211.0370011 -25.64648477 211.02052025 -28 211 C-28.07029764 197.10856453 -28.12288942 183.21715691 -28.15543652 169.32557964 C-28.17106115 162.87446084 -28.19224105 156.42346193 -28.22631836 149.97241211 C-28.25902579 143.74136496 -28.27687708 137.51043281 -28.28463173 131.27930641 C-28.29015481 128.90758264 -28.30093986 126.53586482 -28.31719017 124.16419029 C-28.33911547 120.83027142 -28.34196059 117.49682171 -28.34057617 114.1628418 C-28.351362 113.19251007 -28.36214783 112.22217834 -28.3732605 111.22244263 C-28.26646785 87.29893351 -14.20626412 65.47636852 2 49 C2.78890625 48.18660156 3.5778125 47.37320313 4.390625 46.53515625 C9.74185146 41.33613534 15.27275302 36.91479325 21.625 33 C22.32157715 32.56921143 23.0181543 32.13842285 23.73583984 31.69458008 C29.93752861 27.92557841 36.277755 24.74663507 43 22 C44.06089844 21.56042969 45.12179688 21.12085937 46.21484375 20.66796875 C68.46705822 12.07347284 93.4878572 8.80693847 116 18 C119.56509994 19.73827749 122.77855596 21.69306846 126 24 C126.70382812 24.47308594 127.40765625 24.94617188 128.1328125 25.43359375 C132.38304435 28.41522028 135.79835405 31.72092419 139.10546875 35.71484375 C140.44121675 37.32600371 141.82397306 38.89874897 143.23828125 40.44140625 C165.36033491 65.24492096 179.61425004 102.83979014 180 136 C180.01901367 136.99805664 180.03802734 137.99611328 180.05761719 139.02441406 C181.12354074 200.2363846 159.94635837 254.54565465 121.04296875 301.52734375 C119.61170921 303.25963302 118.22143518 305.02622529 116.86328125 306.81640625 C116.24839844 307.53699219 115.63351562 308.25757813 115 309 C114.34 309 113.68 309 113 309 C112.73445312 309.58136719 112.46890625 310.16273438 112.1953125 310.76171875 C108.86769725 316.99284143 103.30399432 321.76337135 97.98046875 326.2734375 C95.99794075 328.00179524 94.15380293 329.81024972 92.3125 331.6875 C89.6876414 334.34831556 87.05099347 336.82071895 84 339 C83.34 339 82.68 339 82 339 C81.67 339.99 81.34 340.98 81 342 C79.5390625 343.32421875 79.5390625 343.32421875 77.625 344.6875 C76.89796875 345.21085937 76.1709375 345.73421875 75.421875 346.2734375 C74.62265625 346.84320313 73.8234375 347.41296875 73 348 C72.18015625 348.61101562 71.3603125 349.22203125 70.515625 349.8515625 C60.28800719 357.4466278 49.62376055 364.19645379 38.5625 370.5 C37.44476196 371.1504126 37.44476196 371.1504126 36.30444336 371.81396484 C31.88804229 374.28508769 28.17824577 376.09124662 23 376 C19.69466843 374.83968507 16.72978201 373.22437405 13.6875 371.5 C12.84082764 371.03585693 11.99415527 370.57171387 11.12182617 370.09350586 C6.07994654 367.29030427 1.21759168 364.34841747 -3.41796875 360.90625 C-6.19037667 358.8594496 -9.02630566 356.93020542 -11.88012695 354.99951172 C-27.16200449 344.64028897 -27.16200449 344.64028897 -32 340 C-32 339.34 -32 338.68 -32 338 C-32.556875 337.938125 -33.11375 337.87625 -33.6875 337.8125 C-36.29157484 336.89755479 -37.58644613 335.57949252 -39.44921875 333.58984375 C-42.05626329 330.91713058 -44.9078745 328.51706734 -47.71875 326.0625 C-59.02907515 315.83672657 -68.82651103 304.13415803 -78 292 C-78.69440186 291.09096924 -78.69440186 291.09096924 -79.40283203 290.16357422 C-85.82206107 281.73986054 -91.62326486 273.12006734 -96.88964844 263.93115234 C-98.03964121 261.93105497 -99.21047493 259.94410057 -100.3828125 257.95703125 C-104.54111499 250.83204143 -108.11072741 243.83327236 -110.8984375 236.0390625 C-111.94017902 233.16503803 -113.1287257 230.41504634 -114.375 227.625 C-123.08090649 206.83518545 -129.07861031 183.62323838 -129.203125 161.00390625 C-129.20882507 160.17148911 -129.21452515 159.33907196 -129.22039795 158.48143005 C-129.22978169 156.72762291 -129.2363553 154.97379866 -129.24023438 153.2199707 C-129.24986186 150.60009031 -129.28091661 147.98102264 -129.3125 145.36132812 C-129.50446388 114.66013362 -121.05312986 75.6847711 -100 52 C-99.34 52 -98.68 52 -98 52 C-97.8860791 51.4016333 -97.7721582 50.8032666 -97.65478516 50.18676758 C-96.59019949 46.63140076 -93.8915865 44.30884972 -91.375 41.6875 C-90.83246582 41.11298096 -90.28993164 40.53846191 -89.73095703 39.9465332 C-88.16152569 38.29027529 -86.58189778 36.64434112 -85 35 C-84.2471875 34.2059375 -83.494375 33.411875 -82.71875 32.59375 C-81.19260919 31.0158756 -79.60363449 29.49904964 -78 28 C-77.34 28 -76.68 28 -76 28 C-76 27.34 -76 26.68 -76 26 C-73.86739227 24.35151874 -71.74866814 22.85145153 -69.5 21.375 C-68.49743164 20.71165649 -68.49743164 20.71165649 -67.47460938 20.03491211 C-60.29887097 15.38987308 -52.75578969 11.57269016 -45 8 C-43.9171875 7.48695312 -42.834375 6.97390625 -41.71875 6.4453125 C-36.89653127 4.57113085 -32.048498 3.41115625 -27 2.3125 C-25.98993896 2.09118408 -24.97987793 1.86986816 -23.93920898 1.6418457 C-15.82653756 -0.03465686 -8.26226827 -0.58736504 0 0 Z " fill="#3EB285" transform="translate(184,10)"/>
</svg>
